<svg xmlns="http://www.w3.org/2000/svg" viewBox="0 0 24 24" fill="#b8d8ff">
  <path d="M20.447 20.452H16.9V14.89c0-1.327-.024-3.036-1.849-3.036-1.849 0-2.132 1.445-2.132 2.939v5.659H9.373V9h3.4v1.561h.048c.474-.9 1.633-1.849 3.358-1.849 3.591 0 4.254 2.364 4.254 5.438v6.302zM5.337 7.433c-1.087 0-1.966-.879-1.966-1.966s.879-1.966 1.966-1.966 1.966.879 1.966 1.966-.879 1.966-1.966 1.966zM7.119 20.452H3.555V9h3.564v11.452zM22.225 0H1.771C.792 0 0 .774 0 1.728v20.543C0 23.225.792 24 1.771 24h20.451C23.2 24 24 23.225 24 22.271V1.728C24 .774 23.2 0 22.222 0h.003z"/>
</svg>
